<?xml version="1.0" encoding="utf-8"?>
<!-- Generator: Adobe Illustrator 24.0.0, SVG Export Plug-In . SVG Version: 6.00 Build 0)  -->
<svg version="1.1" xmlns="http://www.w3.org/2000/svg" xmlns:xlink="http://www.w3.org/1999/xlink" x="0px" y="0px"
	 viewBox="0 0 16 16" style="enable-background:new 0 0 16 16;" xml:space="preserve">
<style type="text/css">
	.st0{display:none;}
	.st1{display:inline;fill:none;stroke:#333333;stroke-linecap:round;stroke-miterlimit:10;}
	.st2{display:inline;fill:#333333;}
	.st3{fill:#262626;}
</style>
<g id="图层_1" class="st0">
	<path class="st1" d="M5.8,12.9C4.4,12.2,3.5,10.7,3.5,9c0-2.5,2-4.5,4.5-4.5s4.5,2,4.5,4.5c0,1.8-1,3.3-2.5,4"/>
	<path class="st1" d="M3.5,15c-1.8-1.4-3-3.6-3-6c0-4.1,3.4-7.5,7.5-7.5s7.5,3.4,7.5,7.5c0,2.5-1.2,4.6-3,6"/>
	<circle class="st2" cx="8" cy="9" r="2"/>
</g>
<g id="图层_2">
	<g>
		<path class="st3" d="M8,1.6c2.2,2.8,5,7,5,8.8c0,2.5-2.2,4.6-5,4.6s-5-2.1-5-4.6C3,8.6,5.8,4.4,8,1.6 M8,0c0,0-6,7.3-6,10.4
			S4.7,16,8,16s6-2.5,6-5.6S8,0,8,0L8,0z"/>
	</g>
	<path id="路径" class="st3" d="M8.4,8.9c-0.1,0-0.2,0-0.2-0.1c0,0,0,0,0-0.1l0.7-2.3c0-0.1,0-0.2-0.1-0.2c-0.1,0-0.1,0-0.2,0.1
		l-3,3.9c-0.1,0.1,0,0.2,0,0.2c0,0,0.1,0,0.1,0l1.5-0.2c0.1,0,0.2,0,0.2,0.1c0,0,0,0,0,0.1l-0.7,2.3c0,0.1,0,0.2,0.1,0.2
		c0.1,0,0.1,0,0.2-0.1L10,9c0.1-0.1,0-0.2,0-0.2c0,0-0.1,0-0.1,0L8.4,8.9z"/>
</g>
</svg>
