<svg xmlns="http://www.w3.org/2000/svg" width="48" height="48" viewBox="0 0 48 48">
  <defs>
    <style>
      .cls-1 {
        opacity: 0.3;
      }

      .cls-2, .cls-7 {
        fill: #fff;
      }

      .cls-2 {
        opacity: 0;
      }

      .cls-3, .cls-4, .cls-6 {
        fill: none;
      }

      .cls-3 {
        stroke: #fff;
        stroke-width: 2px;
      }

      .cls-5, .cls-7 {
        stroke: none;
      }
    </style>
  </defs>
  <g id="camera-on" class="cls-1">
    <rect id="background" class="cls-2" width="48" height="48"/>
    <g id="camera" transform="translate(-1303 -267)">
      <g id="椭圆_5" data-name="椭圆 5" class="cls-3" transform="translate(1310 271)">
        <circle class="cls-5" cx="17" cy="17" r="17"/>
        <circle class="cls-6" cx="17" cy="17" r="16"/>
      </g>
      <g id="椭圆_6" data-name="椭圆 6" class="cls-3" transform="translate(1321 282)">
        <circle class="cls-5" cx="6" cy="6" r="6"/>
        <circle class="cls-6" cx="6" cy="6" r="5"/>
      </g>
      <g id="路径_39" data-name="路径 39" class="cls-4" transform="translate(1318 303)">
        <path class="cls-5" d="M9,0c4.971,0,9,3.582,9,8H0C0,3.582,4.029,0,9,0Z"/>
        <path class="cls-7" d="M 9 2 C 5.957902908325195 2 3.362852096557617 3.671860694885254 2.399832725524902 6 L 15.6001672744751 6 C 14.63714790344238 3.671860694885254 12.0420970916748 2 9 2 M 9 0 C 13.97056007385254 0 18 3.581719875335693 18 8 C 13.3338794708252 8 5.519240379333496 8 0 8 C 0 3.581719875335693 4.029439926147461 0 9 0 Z"/>
      </g>
      <g id="椭圆_7" data-name="椭圆 7" class="cls-3" transform="translate(1317 278)">
        <circle class="cls-5" cx="10" cy="10" r="10"/>
        <circle class="cls-6" cx="10" cy="10" r="9"/>
      </g>
    </g>
  </g>
</svg>
