<svg xmlns="http://www.w3.org/2000/svg" width="48" height="48" viewBox="0 0 48 48">
  <defs>
    <style>
      .cls-1 {
        opacity: 0.3;
      }

      .cls-2, .cls-5, .cls-8 {
        fill: #fff;
      }

      .cls-2 {
        opacity: 0;
      }

      .cls-3, .cls-4, .cls-7 {
        fill: none;
      }

      .cls-3 {
        stroke: #fff;
        stroke-width: 2px;
      }

      .cls-5 {
        font-size: 25px;
        font-family: Helvetica;
      }

      .cls-6, .cls-8 {
        stroke: none;
      }
    </style>
  </defs>
  <g id="capslock-off" class="cls-1">
    <rect id="background" class="cls-2" width="48" height="48"/>
    <g id="icon-capslock-on" transform="translate(0 -1)">
      <g id="矩形_11" data-name="矩形 11" class="cls-3" transform="translate(6 15)">
        <rect class="cls-6" width="36" height="29" rx="4"/>
        <rect class="cls-7" x="1" y="1" width="34" height="27" rx="3"/>
      </g>
      <g id="减去_1" data-name="减去 1" class="cls-4" transform="translate(6 6)">
        <path class="cls-6" d="M28,11H8V7a8.009,8.009,0,0,1,8-8h4a8.009,8.009,0,0,1,8,8v4Z"/>
        <path class="cls-8" d="M 25.99990081787109 8.999800682067871 L 25.99990081787109 7.000200271606445 C 25.99990081787109 3.691730499267578 23.30826950073242 1.000100374221802 19.99979972839355 1.000100374221802 L 16.00020027160645 1.000100374221802 C 12.69172954559326 1.000100374221802 10.00010013580322 3.691730499267578 10.00010013580322 7.000200271606445 L 10.00010013580322 8.999800682067871 L 25.99990081787109 8.999800682067871 M 27.99990081787109 10.99980068206787 L 27.99889945983887 10.99980068206787 L 8.000100135803223 10.99980068206787 L 8.000100135803223 7.000200271606445 C 8.000100135803223 2.588930368423462 11.58893013000488 -0.9998995661735535 16.00020027160645 -0.9998995661735535 L 19.99979972839355 -0.9998995661735535 C 24.41106986999512 -0.9998995661735535 27.99990081787109 2.588930368423462 27.99990081787109 7.000200271606445 L 27.99990081787109 10.99880027770996 L 27.99990081787109 10.99980068206787 Z"/>
      </g>
      <text id="A" class="cls-5" transform="translate(16 38)"><tspan x="0" y="0">A</tspan></text>
    </g>
  </g>
</svg>
