<svg id="airplane-mode-on" xmlns="http://www.w3.org/2000/svg" width="48" height="48" viewBox="0 0 48 48">
  <defs>
    <style>
      .cls-1, .cls-4 {
        fill: #fff;
      }

      .cls-1 {
        opacity: 0;
      }

      .cls-2 {
        fill: none;
        stroke-linejoin: round;
      }

      .cls-3, .cls-4 {
        stroke: none;
      }
    </style>
  </defs>
  <rect id="background" class="cls-1" width="48" height="48"/>
  <g id="airplane_mode" data-name="airplane mode" class="cls-2" transform="translate(-202.082 -465.769)">
    <path class="cls-3" d="M246.442,488.842l-4.112-1.549a2.386,2.386,0,0,0-.829-.151l-9.212,0-13.956-17.864a1.328,1.328,0,0,0-1.05-.512h-1.765a1.34,1.34,0,0,0-1.247,1.82l6.27,16.556h-6.526l-5.7-5.733a1.344,1.344,0,0,0-.943-.395l-.955,0a1.34,1.34,0,0,0-1.239,1.84l2.748,6.909-2.748,6.908a1.341,1.341,0,0,0,1.239,1.84h.958a1.326,1.326,0,0,0,.943-.395l5.7-5.732h6.525l-6.272,16.558a1.34,1.34,0,0,0,1.247,1.82h1.765a1.334,1.334,0,0,0,1.05-.512l13.953-17.866H241.5a2.332,2.332,0,0,0,.829-.152l4.112-1.548A.987.987,0,0,0,246.442,488.842Z"/>
    <path class="cls-4" d="M 217.29248046875 468.7689819335938 C 217.289306640625 468.7689819335938 217.2861785888672 468.7689819335938 217.2830047607422 468.7690124511719 L 215.5180053710938 468.7690124511719 C 214.5829925537109 468.7690124511719 213.9369964599609 469.7090148925781 214.27099609375 470.5889892578125 L 220.5410003662109 487.1449890136719 L 214.0149993896484 487.1449890136719 L 208.3159942626953 481.4119873046875 C 208.0659942626953 481.1600036621094 207.7259979248047 481.0199890136719 207.3730010986328 481.0169982910156 L 206.4179992675781 481.0199890136719 C 205.4709930419922 481.0199890136719 204.8280029296875 481.9809875488281 205.1790008544922 482.8599853515625 L 207.927001953125 489.7690124511719 L 205.1790008544922 496.677001953125 C 204.8285522460938 497.5545959472656 205.4720611572266 498.5169982910156 206.4136199951172 498.5169982910156 C 206.4151153564453 498.5169982910156 206.41650390625 498.5169982910156 206.4179992675781 498.5169982910156 L 207.3760070800781 498.5169982910156 C 207.7319946289062 498.5169982910156 208.0690002441406 498.3739929199219 208.3190002441406 498.1220092773438 L 214.0180053710938 492.3900146484375 L 220.5429992675781 492.3900146484375 L 214.27099609375 508.947998046875 C 213.9369964599609 509.8280029296875 214.5829925537109 510.7680053710938 215.5180053710938 510.7680053710938 L 217.2830047607422 510.7680053710938 C 217.6950073242188 510.7680053710938 218.0800018310547 510.5780029296875 218.3329925537109 510.2560119628906 L 232.2859954833984 492.3900146484375 L 241.5010070800781 492.3900146484375 C 241.7850036621094 492.3900146484375 242.0630035400391 492.3389892578125 242.3300018310547 492.2380065917969 L 246.4420013427734 490.6900024414062 C 247.2940063476562 490.3760070800781 247.2969970703125 489.1640014648438 246.4420013427734 488.8420104980469 L 242.3300018310547 487.2929992675781 C 242.0659942626953 487.1950073242188 241.7850036621094 487.1419982910156 241.5010070800781 487.1419982910156 L 232.2890014648438 487.1449890136719 L 218.3329925537109 469.281005859375 C 218.0819549560547 468.9615173339844 217.6989288330078 468.7689819335938 217.29248046875 468.7689819335938 M 217.29248046875 466.7689819335938 C 218.3158264160156 466.7689819335938 219.2682800292969 467.2341918945312 219.9056243896484 468.0453491210938 C 219.9067687988281 468.0468139648438 219.9079132080078 468.0482788085938 219.9090576171875 468.0497131347656 L 233.2642669677734 485.1446838378906 L 241.5003662109375 485.1419982910156 C 242.0194702148438 485.1419982910156 242.5325317382812 485.23486328125 243.0259246826172 485.4179992675781 C 243.0289764404297 485.4190979003906 243.0320129394531 485.4202575683594 243.0350341796875 485.42138671875 L 247.1470336914062 486.9703979492188 C 248.3269500732422 487.4147338867188 249.0865783691406 488.5171203613281 249.0821075439453 489.7787170410156 C 249.0776672363281 491.03466796875 248.3164367675781 492.1267395019531 247.1421203613281 492.5634460449219 L 243.0346374511719 494.1097717285156 C 242.5439147949219 494.2953796386719 242.0269622802734 494.3900146484375 241.5010070800781 494.3900146484375 L 233.2617034912109 494.3900146484375 L 219.9092407226562 511.4870300292969 C 219.9080352783203 511.4885559082031 219.9068450927734 511.4901123046875 219.9056243896484 511.4916381835938 C 219.268310546875 512.3027954101562 218.3123931884766 512.7680053710938 217.2830047607422 512.7680053710938 L 215.5180053710938 512.7680053710938 C 214.4228363037109 512.7680053710938 213.3972930908203 512.2293701171875 212.7747039794922 511.3271179199219 C 212.1502075195312 510.422119140625 212.0105438232422 509.2674255371094 212.4011535644531 508.2383117675781 L 217.6467437744141 494.3900146484375 L 214.8498077392578 494.3900146484375 L 209.7372894287109 499.5321350097656 C 209.1077117919922 500.1666870117188 208.2686004638672 500.5169982910156 207.3760070800781 500.5169982910156 L 206.4179992675781 500.5169982910156 C 205.3101043701172 500.5169982910156 204.2806549072266 499.9699096679688 203.6598358154297 499.0535278320312 C 203.0360565185547 498.1327819824219 202.9096069335938 496.9671020507812 203.3216094970703 495.9353332519531 L 205.7745819091797 489.7689514160156 L 203.3206024169922 483.5991516113281 C 202.9095153808594 482.5696716308594 203.0355834960938 481.404296875 203.6588439941406 480.4842834472656 C 204.279296875 479.5684509277344 205.3090667724609 479.0212707519531 206.4141387939453 479.0199890136719 L 207.3667449951172 479.0169982910156 C 207.3686676025391 479.0169982910156 207.37060546875 479.0169982910156 207.3725433349609 479.0169982910156 C 207.3783416748047 479.0169982910156 207.3841400146484 479.0170288085938 207.3899383544922 479.0170593261719 C 208.2791137695312 479.0245971679688 209.1122131347656 479.3748779296875 209.7357635498047 480.0033569335938 L 214.8469085693359 485.1449890136719 L 217.6449584960938 485.1449890136719 L 212.400634765625 471.2973327636719 C 212.0105590820312 470.2696228027344 212.1501922607422 469.1149291992188 212.7746887207031 468.2099304199219 C 213.3972930908203 467.3076782226562 214.4228363037109 466.7689819335938 215.5180053710938 466.7689819335938 L 217.2830047607422 466.7689819335938 L 217.29248046875 466.7689819335938 Z"/>
  </g>
</svg>
