<svg width="48" height="48" viewBox="0 0 48 48" fill="none" xmlns="http://www.w3.org/2000/svg">
<g opacity="0.65">
<path fill-rule="evenodd" clip-rule="evenodd" d="M29.347 31.5185C29.958 31.9061 30.5363 32.3663 31.0693 32.8993C31.8503 33.6804 33.1167 33.6804 33.8977 32.8993C34.6788 32.1183 34.6788 30.852 33.8977 30.0709C31.1137 27.2869 27.4488 25.9205 23.8002 25.9718L29.347 31.5185ZM18.8584 21.0299C24.9851 19.2108 31.8895 20.7195 36.7261 25.5562C37.5072 26.3372 38.7735 26.3372 39.5546 25.5562C40.3356 24.7751 40.3356 23.5088 39.5546 22.7278C33.1117 16.2849 23.6668 14.6736 15.7223 17.8939L18.8584 21.0299ZM12.0061 19.8345L14.9121 22.7406C13.6115 23.5021 12.3859 24.4406 11.2703 25.5562C10.4892 26.3372 9.22291 26.3372 8.44186 25.5562C7.66081 24.7751 7.66081 23.5088 8.44186 22.7278C9.54892 21.6207 10.7446 20.6563 12.0061 19.8345ZM11.5772 13.7488C21.439 8.38229 34.0404 9.87033 42.383 18.2129C43.164 18.9939 44.4304 18.9939 45.2114 18.2129C45.9925 17.4318 45.9925 16.1655 45.2114 15.3845C35.2948 5.4678 20.1628 3.94499 8.64446 10.816L11.5772 13.7488ZM5.30315 13.1316L8.15229 15.9807C7.27026 16.6604 6.42185 17.4045 5.61343 18.2129C4.83238 18.9939 3.56605 18.9939 2.785 18.2129C2.00396 17.4318 2.00396 16.1655 2.785 15.3845C3.59148 14.578 4.43244 13.827 5.30315 13.1316ZM19.0441 26.8726L22.2884 30.1168C20.3249 30.4558 18.4432 31.3833 16.9271 32.8993C16.1461 33.6804 14.8798 33.6804 14.0987 32.8993C13.3177 32.1183 13.3177 30.852 14.0987 30.0709C15.5501 28.6195 17.241 27.5534 19.0441 26.8726ZM24.5179 42.7783C24.348 42.8839 24.1781 42.9367 24.0082 42.9367C23.8483 42.9367 23.6834 42.8811 23.5135 42.77C23.3436 42.6588 23.1187 42.4587 22.8389 42.1697L19.376 38.4514C19.256 38.3291 19.1811 38.1901 19.1511 38.0345C19.1211 37.8789 19.1461 37.7344 19.2261 37.601C19.7058 36.8896 20.3679 36.2782 21.2124 35.7668C22.0569 35.2555 22.9888 34.9998 24.0082 34.9998C25.0076 34.9998 25.9246 35.2472 26.7591 35.7418C27.5936 36.2365 28.2557 36.8229 28.7454 37.5009C28.8553 37.6455 28.9003 37.8066 28.8803 37.9845C28.8603 38.1624 28.7904 38.318 28.6705 38.4514L25.1925 42.1697C24.9127 42.4698 24.6878 42.6727 24.5179 42.7783Z" fill="white"/>
<path d="M5 5L43 43" stroke="white" stroke-width="4" stroke-linecap="round" stroke-linejoin="round"/>
</g>
</svg>
