<svg width="48" height="48" viewBox="0 0 48 48" fill="none" xmlns="http://www.w3.org/2000/svg">
<g opacity="0.65">
<path d="M5 5L43 43" stroke="white" stroke-width="4" stroke-linecap="round" stroke-linejoin="round"/>
<path fill-rule="evenodd" clip-rule="evenodd" d="M38.5504 39.7219C39.8264 38.3694 40.9157 36.8392 41.7771 35.1728C42.2844 34.1916 41.9001 32.985 40.9189 32.4778C39.9377 31.9705 38.7311 32.3548 38.2238 33.336C37.5519 34.6358 36.7075 35.8313 35.7209 36.8924L38.5504 39.7219ZM32.6407 39.4692C30.148 41.0714 27.1823 42 24.0005 42C17.7213 42 12.2831 38.3831 9.66256 33.1099C9.17099 32.1208 7.97063 31.7174 6.98147 32.209C5.99231 32.7005 5.58894 33.9009 6.08051 34.8901C9.35077 41.4706 16.1449 46 24.0005 46C28.2913 46 32.2654 44.6487 35.5215 42.3499L32.6407 39.4692ZM33.5976 34.7691C35.7111 32.4573 37.0004 29.3792 37.0004 26V16C37.0004 8.8203 31.1801 3 24.0004 3C17.9911 3 12.9341 7.07745 11.4451 12.6167L15.0004 16.172V16C15.0004 11.0294 19.0299 7 24.0004 7C28.971 7 33.0004 11.0294 33.0004 16V26C33.0004 28.2746 32.1566 30.3521 30.765 31.9366L33.5976 34.7691ZM27.476 34.3044L30.4573 37.2857C28.5549 38.3764 26.3505 39 24.0004 39C16.8207 39 11.0004 33.1797 11.0004 26V17.8289L15.0004 21.8289V26C15.0004 30.9706 19.0299 35 24.0004 35C25.2324 35 26.4066 34.7525 27.476 34.3044ZM25.8284 27H27.0004C28.105 27 29.0004 26.1046 29.0004 25C29.0004 23.8954 28.105 23 27.0004 23H21.8284L25.8284 27ZM19.0004 17C19.0004 15.8954 19.8959 15 21.0004 15H27.0004C28.105 15 29.0004 15.8954 29.0004 17C29.0004 18.1046 28.105 19 27.0004 19H21.0004C19.8959 19 19.0004 18.1046 19.0004 17Z" fill="white"/>
</g>
</svg>
