<svg width="48" height="48" viewBox="0 0 48 48" fill="none" xmlns="http://www.w3.org/2000/svg">
<path fill-rule="evenodd" clip-rule="evenodd" d="M13.0014 8.54059C11.9017 5.90556 13.8375 3 16.6928 3H17.3514C19.2746 3 21.0582 4.0212 22.055 5.69313L29.616 18.375H40.5C43.5376 18.375 46 20.8781 46 23.9659C46 27.0537 43.5376 29.5568 40.5 29.5568H29.5823L22.0404 41.4401C21.0275 43.0359 19.287 44 17.4187 44H17.137C14.2887 44 12.3531 41.1076 13.4393 38.4746L17.1182 29.5568H8.25939L5.1297 32.7382C4.60537 33.2712 3.81682 33.4307 3.13175 33.1422C2.44668 32.8538 2 32.1742 2 31.4205V16.5114C2 15.7576 2.44668 15.078 3.13175 14.7896C3.81682 14.5011 4.60537 14.6606 5.1297 15.1936L8.25939 18.375H17.1057L13.0014 8.54059ZM16.2276 6.72727L22.6443 22.1023H7.5C7.01377 22.1023 6.54745 21.9059 6.20364 21.5564L5.66667 21.0106V26.9212L6.20364 26.3754C6.54745 26.0259 7.01377 25.8295 7.5 25.8295H22.6318L16.6735 40.2727H17.4187C18.0415 40.2727 18.6217 39.9514 18.9593 39.4194L27.5844 25.8295H40.5C41.5125 25.8295 42.3333 24.9952 42.3333 23.9659C42.3333 22.9367 41.5125 22.1023 40.5 22.1023H27.5507L18.9192 7.62498C18.587 7.06767 17.9925 6.72727 17.3514 6.72727H16.2276Z" fill="white"/>
</svg>
