<svg width="48" height="48" viewBox="0 0 48 48" fill="none" xmlns="http://www.w3.org/2000/svg">
<g opacity="0.65">
<path d="M5 5L43 43" stroke="white" stroke-width="4" stroke-linecap="round" stroke-linejoin="round"/>
<path fill-rule="evenodd" clip-rule="evenodd" d="M29.1175 30.2891L29.5823 29.5568H40.5C43.5376 29.5568 46 27.0537 46 23.9659C46 20.8781 43.5376 18.375 40.5 18.375H29.616L22.055 5.69313C21.0582 4.0212 19.2746 3 17.3514 3H16.6928C13.8375 3 11.9017 5.90556 13.0014 8.54059L17.0357 18.2073L20.9307 22.1023H22.6443L16.2276 6.72727H17.3514C17.9925 6.72727 18.587 7.06767 18.9192 7.62498L27.5507 22.1023H40.5C41.5125 22.1023 42.3333 22.9367 42.3333 23.9659C42.3333 24.9952 41.5125 25.8295 40.5 25.8295H27.5844L26.4482 27.6197L29.1175 30.2891ZM21.5715 28.3999L16.6735 40.2727H17.4187C18.0415 40.2727 18.6217 39.9514 18.9593 39.4194L24.2519 31.0803L26.9212 33.7497L22.0404 41.4401C21.0275 43.0359 19.287 44 17.4187 44H17.137C14.2887 44 12.3531 41.1076 13.4393 38.4746L17.1182 29.5568H8.25939L5.1297 32.7382C4.60537 33.2712 3.81682 33.4307 3.13175 33.1422C2.44668 32.8538 2 32.1742 2 31.4205V16.5114C2 15.7576 2.44668 15.078 3.13175 14.7896C3.81682 14.5011 4.60537 14.6606 5.1297 15.1936L8.25939 18.375H11.5466L15.2738 22.1023H7.5C7.01377 22.1023 6.54745 21.9059 6.20364 21.5564L5.66667 21.0106V26.9212L6.20364 26.3754C6.54745 26.0259 7.01377 25.8295 7.5 25.8295H19.0011L21.5715 28.3999Z" fill="white"/>
</g>
</svg>
