<svg width="48" height="48" viewBox="0 0 48 48" fill="none" xmlns="http://www.w3.org/2000/svg">
<g opacity="0.65">
<path d="M5 5L43 43" stroke="white" stroke-width="4" stroke-linecap="round" stroke-linejoin="round"/>
<path fill-rule="evenodd" clip-rule="evenodd" d="M41.3465 43.518C41.473 43.4668 41.5989 43.4098 41.7239 43.346C42.8529 42.7708 43.7708 41.8529 44.346 40.7239C44.7316 39.9672 44.8743 39.1808 44.9389 38.3901C45.0001 37.6409 45 36.7314 45 35.6771V26.8125V26.6771V12.3229C45 11.2686 45.0001 10.3591 44.9389 9.60995C44.8743 8.81926 44.7316 8.03282 44.346 7.27606C43.7708 6.14709 42.8529 5.2292 41.7239 4.65396C40.9672 4.26838 40.1808 4.12574 39.3901 4.06114C38.6409 3.99994 37.7314 3.99997 36.6772 4H36.6771H11.3229H11.3228C10.2686 3.99997 9.35907 3.99994 8.60995 4.06114C7.81926 4.12574 7.03282 4.26838 6.27606 4.65396C5.46188 5.06881 4.75748 5.66186 4.21221 6.38378L7.13952 9.31109C7.16734 9.20238 7.19521 9.13672 7.21799 9.09202C7.40974 8.7157 7.7157 8.40974 8.09202 8.21799C8.19091 8.1676 8.39235 8.09225 8.93568 8.04786C9.50235 8.00156 10.2469 8 11.4 8H36.6C37.7531 8 38.4977 8.00156 39.0643 8.04786C39.6077 8.09225 39.8091 8.1676 39.908 8.21799C40.2843 8.40974 40.5903 8.7157 40.782 9.09202C40.8324 9.19091 40.9078 9.39235 40.9521 9.93568C40.9984 10.5023 41 11.2469 41 12.4V26.6C41 27.7531 40.9984 28.4977 40.9521 29.0643C40.9078 29.6077 40.8324 29.8091 40.782 29.908C40.5903 30.2843 40.2843 30.5903 39.908 30.782C39.8091 30.8324 39.6077 30.9078 39.0643 30.9521C38.4977 30.9984 37.7531 31 36.6 31H28.8284L32.8284 35H36.677H36.6771C37.7314 35 38.6409 35.0001 39.3901 34.9389C39.9314 34.8946 40.4708 34.8138 41 34.6435V35.6C41 36.7531 40.9984 37.4977 40.9521 38.0643C40.9078 38.6077 40.8324 38.8091 40.782 38.908C40.5903 39.2843 40.2843 39.5903 39.908 39.782C39.8091 39.8324 39.6077 39.9078 39.0643 39.9521C38.7292 39.9795 38.3319 39.9913 37.8247 39.9963L41.3465 43.518ZM27.1716 35H26V40H32.1716L36.1716 44H26H22H11.3229C10.2686 44 9.35908 44.0001 8.60995 43.9389C7.81926 43.8743 7.03282 43.7316 6.27606 43.346C5.14709 42.7708 4.2292 41.8529 3.65396 40.7239C3.26838 39.9672 3.12574 39.1808 3.06114 38.3901C2.99994 37.6409 2.99997 36.7314 3 35.6772V35.6771V26.8052V26.6772V26.6771V12.3229V12.3228C2.99998 11.7896 2.99997 11.2934 3.00787 10.8363L7 14.8284V26.6C7 27.7531 7.00156 28.4977 7.04786 29.0643C7.09225 29.6077 7.1676 29.8091 7.21799 29.908C7.40974 30.2843 7.7157 30.5903 8.09202 30.782C8.19091 30.8324 8.39235 30.9078 8.93568 30.9521C9.50235 30.9984 10.2469 31 11.4 31H23.1716L27.1716 35ZM22 35V40H11.4C10.2469 40 9.50235 39.9984 8.93568 39.9521C8.39235 39.9078 8.19091 39.8324 8.09202 39.782C7.7157 39.5903 7.40974 39.2843 7.21799 38.908C7.1676 38.8091 7.09225 38.6077 7.04786 38.0643C7.00156 37.4977 7 36.7531 7 35.6V34.6435C7.52922 34.8138 8.06859 34.8946 8.60995 34.9389C9.35909 35.0001 10.2686 35 11.3229 35H11.323H22Z" fill="white"/>
</g>
</svg>
