<svg width="48" height="54" viewBox="0 0 48 54" fill="none" xmlns="http://www.w3.org/2000/svg">
<path d="M24.01 48.9369C24.1799 48.9369 24.3498 48.8841 24.5197 48.7785C24.6896 48.6728 24.9145 48.47 25.1943 48.1698L28.6722 44.4515C28.7922 44.3181 28.8621 44.1625 28.8821 43.9847C28.9021 43.8068 28.8571 43.6456 28.7472 43.5011C28.2575 42.823 27.5954 42.2367 26.7609 41.742C25.9264 41.2473 25.0094 41 24.01 41C22.9906 41 22.0587 41.2557 21.2142 41.767C20.3697 42.2783 19.7076 42.8897 19.2278 43.6012C19.1479 43.7345 19.1229 43.8791 19.1529 44.0347C19.1829 44.1903 19.2578 44.3293 19.3778 44.4515L22.8407 48.1698C23.1205 48.4589 23.3454 48.659 23.5153 48.7701C23.6852 48.8813 23.8501 48.9369 24.01 48.9369Z" fill="white"/>
<path d="M15.5147 37.4853C20.201 32.799 27.799 32.799 32.4853 37.4853" stroke="white" stroke-width="4" stroke-linecap="round"/>
<path d="M9.85786 30.1421C17.6683 22.3317 30.3317 22.3317 38.1421 30.1421" stroke="white" stroke-width="4" stroke-linecap="round"/>
<path fill-rule="evenodd" clip-rule="evenodd" d="M42.3848 24.2135C32.2311 14.0599 15.7689 14.0599 5.61522 24.2135C4.83418 24.9946 3.56785 24.9946 2.7868 24.2135C2.00575 23.4325 2.00575 22.1661 2.7868 21.3851C14.5025 9.66935 33.4975 9.66935 45.2132 21.3851C45.9943 22.1661 45.9943 23.4325 45.2132 24.2135C44.4322 24.9946 43.1658 24.9946 42.3848 24.2135Z" fill="white"/>
</svg>
