<svg width="48" height="48" viewBox="0 0 48 48" fill="none" xmlns="http://www.w3.org/2000/svg">
<g opacity="0.65">
<rect x="8" y="19" width="32" height="24" rx="4" stroke="white" stroke-width="4"/>
<path d="M26 12V10C26 6.68629 23.3137 4 20 4V4C16.6863 4 14 6.68629 14 10V18" stroke="white" stroke-width="4" stroke-linecap="round"/>
<path d="M13.5234 23.625H23.7285V26.1543H16.5117V29.4648H22.8301V31.9648H16.5117V38H13.5234V23.625ZM31.4238 27.1016C32.5241 27.1016 33.4225 27.3913 34.1191 27.9707C34.8223 28.5436 35.1738 29.4974 35.1738 30.832V38H32.3223V31.5254C32.3223 30.9655 32.2474 30.5358 32.0977 30.2363C31.8242 29.6895 31.3034 29.416 30.5352 29.416C29.5911 29.416 28.9434 29.8164 28.5918 30.6172C28.4095 31.0404 28.3184 31.5807 28.3184 32.2383V38H25.5449V27.375H28.2305V28.9277C28.5885 28.3809 28.9271 27.987 29.2461 27.7461C29.819 27.3164 30.5449 27.1016 31.4238 27.1016Z" fill="white"/>
<path d="M13.5234 23.625V23.125H13.0234V23.625H13.5234ZM23.7285 23.625H24.2285V23.125H23.7285V23.625ZM23.7285 26.1543V26.6543H24.2285V26.1543H23.7285ZM16.5117 26.1543V25.6543H16.0117V26.1543H16.5117ZM16.5117 29.4648H16.0117V29.9648H16.5117V29.4648ZM22.8301 29.4648H23.3301V28.9648H22.8301V29.4648ZM22.8301 31.9648V32.4648H23.3301V31.9648H22.8301ZM16.5117 31.9648V31.4648H16.0117V31.9648H16.5117ZM16.5117 38V38.5H17.0117V38H16.5117ZM13.5234 38H13.0234V38.5H13.5234V38ZM13.5234 24.125H23.7285V23.125H13.5234V24.125ZM23.2285 23.625V26.1543H24.2285V23.625H23.2285ZM23.7285 25.6543H16.5117V26.6543H23.7285V25.6543ZM16.0117 26.1543V29.4648H17.0117V26.1543H16.0117ZM16.5117 29.9648H22.8301V28.9648H16.5117V29.9648ZM22.3301 29.4648V31.9648H23.3301V29.4648H22.3301ZM22.8301 31.4648H16.5117V32.4648H22.8301V31.4648ZM16.0117 31.9648V38H17.0117V31.9648H16.0117ZM16.5117 37.5H13.5234V38.5H16.5117V37.5ZM14.0234 38V23.625H13.0234V38H14.0234ZM34.1191 27.9707L33.7994 28.3551L33.8033 28.3583L34.1191 27.9707ZM35.1738 38V38.5H35.6738V38H35.1738ZM32.3223 38H31.8223V38.5H32.3223V38ZM32.0977 30.2363L31.6504 30.4599L32.0977 30.2363ZM28.5918 30.6172L28.134 30.4162L28.1326 30.4194L28.5918 30.6172ZM28.3184 38V38.5H28.8184V38H28.3184ZM25.5449 38H25.0449V38.5H25.5449V38ZM25.5449 27.375V26.875H25.0449V27.375H25.5449ZM28.2305 27.375H28.7305V26.875H28.2305V27.375ZM28.2305 28.9277H27.7305V30.6041L28.6488 29.2016L28.2305 28.9277ZM29.2461 27.7461L28.9461 27.3461L28.9448 27.3471L29.2461 27.7461ZM31.4238 27.6016C32.4333 27.6016 33.2107 27.8655 33.7994 28.3551L34.4389 27.5863C33.6343 26.9171 32.6149 26.6016 31.4238 26.6016V27.6016ZM33.8033 28.3583C34.3432 28.7982 34.6738 29.5747 34.6738 30.832H35.6738C35.6738 29.42 35.3014 28.289 34.435 27.5831L33.8033 28.3583ZM34.6738 30.832V38H35.6738V30.832H34.6738ZM35.1738 37.5H32.3223V38.5H35.1738V37.5ZM32.8223 38V31.5254H31.8223V38H32.8223ZM32.8223 31.5254C32.8223 30.9336 32.7452 30.4134 32.5449 30.0127L31.6504 30.4599C31.7496 30.6582 31.8223 30.9974 31.8223 31.5254H32.8223ZM32.5449 30.0127C32.1636 29.2501 31.4347 28.916 30.5352 28.916V29.916C31.172 29.916 31.4849 30.1288 31.6504 30.4599L32.5449 30.0127ZM30.5352 28.916C29.9925 28.916 29.4983 29.0315 29.0784 29.291C28.656 29.5521 28.3443 29.9372 28.134 30.4162L29.0496 30.8182C29.1909 30.4964 29.3788 30.2809 29.6042 30.1416C29.8321 30.0007 30.1338 29.916 30.5352 29.916V28.916ZM28.1326 30.4194C27.9145 30.9257 27.8184 31.5396 27.8184 32.2383H28.8184C28.8184 31.6219 28.9045 31.155 29.051 30.815L28.1326 30.4194ZM27.8184 32.2383V38H28.8184V32.2383H27.8184ZM28.3184 37.5H25.5449V38.5H28.3184V37.5ZM26.0449 38V27.375H25.0449V38H26.0449ZM25.5449 27.875H28.2305V26.875H25.5449V27.875ZM27.7305 27.375V28.9277H28.7305V27.375H27.7305ZM28.6488 29.2016C28.9927 28.6763 29.2942 28.3363 29.5474 28.1451L28.9448 27.3471C28.56 27.6376 28.1844 28.0854 27.8122 28.6538L28.6488 29.2016ZM29.5461 28.1461C30.0143 27.7949 30.628 27.6016 31.4238 27.6016V26.6016C30.4618 26.6016 29.6237 26.8379 28.9461 27.3461L29.5461 28.1461Z" fill="white"/>
</g>
</svg>
