<svg width="48" height="48" viewBox="0 0 48 48" fill="none" xmlns="http://www.w3.org/2000/svg">
<g opacity="0.65">
<path fill-rule="evenodd" clip-rule="evenodd" d="M35.3166 36.4881L40.3072 32.1807C40.8167 31.741 41.0709 31.0745 40.9835 30.4072C40.8962 29.7399 40.4791 29.1612 39.8736 28.8674L30.2038 24.1747L39.925 19.1068C40.5128 18.8004 40.9105 18.2227 40.9871 17.5643C41.0636 16.9059 40.809 16.2524 40.3072 15.8193L24.8589 2.48598C24.2667 1.97484 23.4309 1.8559 22.7196 2.18158C22.0083 2.50725 21.5522 3.21773 21.5522 4.00003V19.9762L16.2143 17.3858L25.5522 26.7238V26.5997L25.7868 26.4774L35.3924 31.1388L32.4805 33.6521L35.3166 36.4881ZM25.5522 32.3806V39.6319L29.4443 36.2727L32.2803 39.1087L24.8589 45.5141C24.2667 46.0252 23.4309 46.1442 22.7196 45.8185C22.0083 45.4928 21.5522 44.7823 21.5522 44V28.685L9.92501 34.7465C8.94554 35.2571 7.7376 34.877 7.22698 33.8976C6.71637 32.9181 7.09644 31.7101 8.07591 31.1995L18.7871 25.6155L25.5522 32.3806ZM13.862 20.6904L7.73244 14.5609C7.51503 14.7388 7.33185 14.9656 7.20114 15.235C6.71889 16.2287 7.13354 17.4252 8.12727 17.9075L13.862 20.6904ZM25.5522 21.9174L25.7224 22L35.4629 16.9221L25.5522 8.36814V21.9174Z" fill="white"/>
<path d="M5 5L43 43" stroke="white" stroke-width="4" stroke-linecap="round" stroke-linejoin="round"/>
</g>
</svg>
