<svg width="48" height="48" viewBox="0 0 48 48" fill="none" xmlns="http://www.w3.org/2000/svg">
<rect x="8" y="19" width="32" height="24" rx="4" stroke="white" stroke-width="4"/>
<path d="M34 18V11C34 7.13401 30.866 4 27 4H21C17.134 4 14 7.13401 14 11V18" stroke="white" stroke-width="4"/>
<path d="M19.3867 28.2344V26.3398C20.2656 26.3008 20.8809 26.2422 21.2324 26.1641C21.7923 26.0404 22.248 25.793 22.5996 25.4219C22.8405 25.168 23.0228 24.8294 23.1465 24.4062C23.2181 24.1523 23.2539 23.9635 23.2539 23.8398H25.5684V38H22.7168V28.2344H19.3867Z" fill="white"/>
<path d="M19.3867 28.2344H18.8867V28.7344H19.3867V28.2344ZM19.3867 26.3398L19.3645 25.8403L18.8867 25.8616V26.3398H19.3867ZM21.2324 26.1641L21.1246 25.6758L21.124 25.676L21.2324 26.1641ZM22.5996 25.4219L22.2369 25.0777L22.2366 25.078L22.5996 25.4219ZM23.1465 24.4062L23.6264 24.5465L23.6277 24.542L23.1465 24.4062ZM23.2539 23.8398V23.3398H22.7539V23.8398H23.2539ZM25.5684 23.8398H26.0684V23.3398H25.5684V23.8398ZM25.5684 38V38.5H26.0684V38H25.5684ZM22.7168 38H22.2168V38.5H22.7168V38ZM22.7168 28.2344H23.2168V27.7344H22.7168V28.2344ZM19.8867 28.2344V26.3398H18.8867V28.2344H19.8867ZM19.4089 26.8394C20.2873 26.8003 20.9421 26.7408 21.3409 26.6522L21.124 25.676C20.8197 25.7436 20.244 25.8012 19.3645 25.8403L19.4089 26.8394ZM21.3403 26.6523C21.9854 26.5098 22.5341 26.218 22.9626 25.7657L22.2366 25.078C21.962 25.3679 21.5992 25.571 21.1246 25.6758L21.3403 26.6523ZM22.9623 25.766C23.2703 25.4414 23.4861 25.0267 23.6264 24.5465L22.6666 24.266C22.5595 24.6322 22.4107 24.8945 22.2369 25.0777L22.9623 25.766ZM23.6277 24.542C23.701 24.2821 23.7539 24.037 23.7539 23.8398H22.7539C22.7539 23.8901 22.7352 24.0226 22.6653 24.2705L23.6277 24.542ZM23.2539 24.3398H25.5684V23.3398H23.2539V24.3398ZM25.0684 23.8398V38H26.0684V23.8398H25.0684ZM25.5684 37.5H22.7168V38.5H25.5684V37.5ZM23.2168 38V28.2344H22.2168V38H23.2168ZM22.7168 27.7344H19.3867V28.7344H22.7168V27.7344Z" fill="white"/>
</svg>
