<svg width="48" height="48" viewBox="0 0 48 48" fill="none" xmlns="http://www.w3.org/2000/svg">
<path d="M23.5517 4L24.8585 2.48595C24.2663 1.97481 23.4304 1.85588 22.7191 2.18155C22.0078 2.50722 21.5517 3.2177 21.5517 4H23.5517ZM23.5517 44H21.5517C21.5517 44.7823 22.0078 45.4928 22.7191 45.8185C23.4304 46.1441 24.2663 46.0252 24.8585 45.5141L23.5517 44ZM39 30.6667L40.3068 32.1807C40.8091 31.7471 41.0637 31.0926 40.9864 30.4336C40.909 29.7745 40.5098 29.1967 39.9208 28.8912L39 30.6667ZM9.92077 13.3327C8.94023 12.8241 7.73309 13.2068 7.22456 14.1873C6.71603 15.1679 7.09868 16.375 8.07923 16.8835L9.92077 13.3327ZM39 17.3333L39.9701 19.0823C40.5417 18.7653 40.9223 18.1888 40.9894 17.5386C41.0565 16.8884 40.8016 16.2464 40.3068 15.8193L39 17.3333ZM8.02992 32.224C7.06398 32.7598 6.71526 33.9771 7.25102 34.9431C7.78678 35.909 9.00415 36.2577 9.97008 35.722L8.02992 32.224ZM21.5517 4V44H25.5517V4H21.5517ZM24.8585 45.5141L40.3068 32.1807L37.6932 29.1526L22.245 42.4859L24.8585 45.5141ZM39.9208 28.8912L9.92077 13.3327L8.07923 16.8835L38.0792 32.4421L39.9208 28.8912ZM22.245 5.51405L37.6932 18.8474L40.3068 15.8193L24.8585 2.48595L22.245 5.51405ZM38.0299 15.5843L8.02992 32.224L9.97008 35.722L39.9701 19.0823L38.0299 15.5843Z" fill="white"/>
</svg>
