<svg width="48" height="48" viewBox="0 0 48 48" fill="none" xmlns="http://www.w3.org/2000/svg">
<path fill-rule="evenodd" clip-rule="evenodd" d="M11.1835 15.8025L20.6425 7.09015C21.9241 5.90965 23.9974 6.81875 23.9974 8.56123V39.4388C23.9974 41.1812 21.9241 42.0903 20.6425 40.9098L11.1835 32.1975H8C5.79086 32.1975 4 30.4067 4 28.1975V19.8025C4 17.5933 5.79086 15.8025 8 15.8025H11.1835Z" fill="white"/>
<path d="M28.4453 32.8891C33.3539 32.8891 37.3331 28.9094 37.3331 24.0002C37.3331 19.091 33.3539 15.1113 28.4453 15.1113" stroke="white" stroke-width="4" stroke-linecap="round"/>
<path fill-rule="evenodd" clip-rule="evenodd" d="M28.4453 26.2198C29.6726 26.2198 30.6675 25.2249 30.6675 23.9976C30.6675 22.7703 29.6726 21.7754 28.4453 21.7754" stroke="white" stroke-width="4" stroke-linecap="round" stroke-linejoin="round"/>
<path d="M28.4453 39.5545C37.0353 39.5545 43.9989 32.59 43.9989 23.9989C43.9989 15.4078 37.0353 8.44336 28.4453 8.44336" stroke="white" stroke-width="4" stroke-linecap="round"/>
</svg>
