<svg width="48" height="48" viewBox="0 0 48 48" fill="none" xmlns="http://www.w3.org/2000/svg">
<g opacity="0.65">
<path d="M5 5L43 43" stroke="white" stroke-width="4" stroke-linecap="round" stroke-linejoin="round"/>
<path fill-rule="evenodd" clip-rule="evenodd" d="M10.2957 17.1241C10.1019 18.0523 10 19.0143 10 20C10 27.732 16.268 34 24 34C24.9857 34 25.9477 33.8981 26.8759 33.7043L37.873 44.7014C37.8572 44.7435 37.84 44.7851 37.8213 44.8264C37.497 45.5411 36.7848 46 36 46H12C11.2152 46 10.503 45.5411 10.1787 44.8264C9.85446 44.1118 9.97808 43.2736 10.4948 42.683L14.2023 38.4459C14.892 37.6577 15.6672 36.9632 16.5081 36.3716C10.3072 33.5293 6 27.2677 6 20C6 17.8556 6.375 15.7987 7.063 13.8914L10.2957 17.1241ZM15.2385 22.0669C16.0165 25.3776 18.6224 27.9835 21.9331 28.7615L15.2385 22.0669ZM27.231 28.4026C30.6054 27.1042 33 23.8318 33 20C33 15.0294 28.9706 11 24 11C20.1682 11 16.8958 13.3946 15.5974 16.769L19.003 20.1746C19.001 20.1166 19 20.0584 19 20C19 17.2386 21.2386 15 24 15C26.7614 15 29 17.2386 29 20C29 22.7614 26.7614 25 24 25C23.9416 25 23.8834 24.999 23.8254 24.997L27.231 28.4026ZM30.9718 32.1433C35.1719 29.7267 38 25.1936 38 20C38 12.268 31.732 6 24 6C18.8064 6 14.2733 8.82806 11.8567 13.0282L8.95026 10.1218C12.1679 5.2296 17.7068 2 24 2C33.9411 2 42 10.0589 42 20C42 26.2932 38.7704 31.8321 33.8782 35.0497L30.9718 32.1433ZM24 38C21.3993 38 18.9252 39.1227 17.2126 41.0799L16.4075 42H31.5925L30.7874 41.0799C29.0748 39.1227 26.6007 38 24 38Z" fill="white"/>
</g>
</svg>
